<?xml version="1.0" encoding="utf-8"?>
<!-- Generator: Adobe Illustrator 16.0.0, SVG Export Plug-In . SVG Version: 6.00 Build 0)  -->
<!DOCTYPE svg PUBLIC "-//W3C//DTD SVG 1.1//EN" "http://www.w3.org/Graphics/SVG/1.1/DTD/svg11.dtd">
<svg version="1.1" id="Capa_1" xmlns="http://www.w3.org/2000/svg" xmlns:xlink="http://www.w3.org/1999/xlink" x="0px" y="0px"
	 width="338.269px" height="325.472px" viewBox="0 0 338.269 325.472" enable-background="new 0 0 338.269 325.472"
	 xml:space="preserve">
<path fill-rule="evenodd" clip-rule="evenodd" fill="#C33636" d="M152.372,228.584c3.097-5.112-0.095-10.102-0.364-15.14
	c-0.104-1.947-0.886-3.858-1.358-5.786c4.095-2.669,6.457-7.212,10.611-9.816c7.997,2.171,15.575,1.788,22.208-3.825
	c3.379-2.859,5.195,0.897,7.557,1.83c2.714,1.072,0.712,3.186,0.077,4.599c-7.577,16.862-8.448,33.996-2.359,51.466
	c2.789,2.823,3.514,6.727,5.297,10.075c0.47,0.871,0.924,1.751,1.309,2.664c0.51,1.373,1.287,2.599,2.142,3.782
	c1.915,3.531,4.975,6.379,6.178,10.336c-3.962,6.807-10.504,7.348-17.347,7.046c-0.434-0.02-0.753,0.104-0.596,0.152
	c0.683,0.212-0.27,0.252,0.487,0.251c1.776,2.369,2.823,5.798,6.943,4.542c5.636,1.538,11.152,3.483,17.215,2.446
	c3.411-0.584,4.088,1.674,3.328,4.504c-1.412,5.263-3.343,10.426-9.081,12.205c-6.582,2.041-13.07,2.125-18.036-3.945
	c-0.71-0.726-1.42-1.451-2.13-2.176c-4.164-6.474-11.313-5.354-17.435-6.836c-4.155-0.755-8.193-2.043-11.943-3.877
	c-2.086-1.021-3.807-0.731-5.744-0.287c-2.166,0.74-6.249-1.019-6.147,2.303c0.088,2.871,4.124,2.471,6.689,2.778
	c1.062,0.127,2.146-0.022,3.228,0.012c2.617,0.626,6.276-0.14,5.943,4.429c-30.823,18.557-62.765,22.084-96.081,7.151
	c-1.427-2.453-2.817-4.914-2.096-7.934c15.523,2.858,30.77,2.642,45.751-3.202c8.109-3.164,15.558-7.138,21.724-13.34
	c1.553-3.229,3.827-5.975,5.907-8.855c3.17-2.986,6.3-6.045,10.546-1.414c0.964,1.052,2.264,1.531,2.772-0.519
	c0.447-1.8,1.536-2.425,3.23-1.93c1.555,0.454,2.317,1.68,2.646,3.202c0.235,1.086,0.143,2.179,0.036,3.271
	c-0.306,3.133,0.569,4.211,3.642,2.353c2.651-1.603,5.439-2.37,8.579,1.431c-1.525-3.504-0.338-6.036-0.428-8.614
	c-2.668-5.337-4.864-10.873-7.186-16.349c-1.766-2.187-4.313-3.293-6.596-4.764c-6.128-3.968-6.128-3.968-1.123-9.521
	c0.902-3.547,1.242-7.175,1.687-10.786C152.005,231.18,151.708,229.841,152.372,228.584z"/>
<path fill-rule="evenodd" clip-rule="evenodd" fill="#C23331" d="M141.791,142.35c6.274,2.023,12.647,3.598,19.207,4.403
	c1.621,0.199,4.169-0.402,3.713,2.591c-0.399,2.615,1.813,6.043-2.21,7.643c-11.098,4.416-15.607,12.835-14.136,24.38
	c0.557,4.371-3.112,3.868-4.975,5.29c-2.723,2.079-3.853-0.858-5.066-2.414c-14.369-18.427-33.392-27.942-56.499-29.729
	c-0.503-0.548-1.201-1.342-0.852-1.9c4.4-7.056,3.454-16.961,11.918-21.906c2.997-1.751,4.425-5.296,7.036-7.605
	c4.343-3.842,7.111-3.509,10.026,1.481c1.5,2.567,3.261,4.809,5.661,6.579c2.448,1.806,4.001,4.215,4.513,7.253
	c-0.85,6.638-3.306,13.06-2.689,19.885c0.217,1.433,1.026,1.714,2.315,1.261c4.841-1.699,9.228-3.548,11.51-8.985
	C133.079,146.248,136.447,142.736,141.791,142.35z"/>
<path fill-rule="evenodd" clip-rule="evenodd" fill="#C23434" d="M301.598,137.933c7.465,2.873,11.063,9.816,15.959,15.348
	c2.313,2.615-2.449,1.146-2.407,1.329c16.27,14.645,21.036,32.425,21.695,51.946c-1.223,2.231-2.189,4.891-5.649,3.365
	c-4.827-12.723-10.317-24.877-20.791-34.365c-14.229-12.891-30.53-19.896-49.744-20.035c-3.304-0.023-6.609-0.004-9.914-0.005
	c1.869-3.703,5.478-1.456,8.124-2.448c-1.181-1.039-3.863-0.142-3.909-2.839c0.555-0.631,1.275-0.947,2.071-1.132
	c2.755-0.726,5.93,0.707,8.356-1.661c2.042-1.899,4.012-3.902,6.807-4.712c3.132-0.152,5.689-1.421,8.451-3.021
	C287.177,135.921,294.199,133.47,301.598,137.933z"/>
<path fill-rule="evenodd" clip-rule="evenodd" fill="#C23434" d="M91.55,229.819c-3.869-1.255-1.904-5.144-3.417-7.652
	c-8.735-14.48-12.012-30.501-11.823-47.266c0.13-11.596,1.465-12.564,13.058-10.548c10.052,1.748,10.332,1.757,10.023,12.188
	c-0.612,20.668,7.469,37.563,21.67,51.988c1.047,1.064,2.041,2.107,3.63,2.242c5.945,1.946,10.249,6.56,15.444,9.729
	c2.167,1.321,1.268,4.277-1.47,4.953c-2.23,0.551-4.637,1.143-7.034,0.498c-4.389-3.931-10.918-3.727-15.221-7.839
	c-1.579-2.671-0.463-5.603-0.815-8.389c-0.382-2.657-2.606-2.921-4.583-3.508c-1.781-0.592-3.173-1.644-4.021-3.35
	c-0.939-1.601-1.916-3.39-4.138-2.818c-2.179,0.561-1.67,2.491-1.538,4.11c0.184,2.249-0.065,4.174-3.071,3.81
	c-2.295-0.278-3.142,2.479-5.295,2.453C92.418,230.373,91.953,230.171,91.55,229.819z"/>
<path fill-rule="evenodd" clip-rule="evenodd" fill="#C33A3B" d="M119.173,138.15c-1.313-2.828-2.859-5.375-5.796-6.939
	c-2.526-1.345-3.884-3.953-4.871-6.442c-1.592-4.013-4.003-4.254-6.626-1.604c-5.223,5.276-11.198,10.257-14.784,16.545
	c-2.434,4.267-2.141,10.287-5.271,14.804c-11.049-0.362-21.61,1.985-31.92,5.735c-2.377,1.189-4.2,0.246-5.878-1.463
	c-1.311-1.335-2.808-2.861-4.676-1.116c-1.63,1.523-0.297,3.011,0.669,4.359c0.527,0.734,1.21,1.406,0.886,2.446
	c-1.875,1.96-3.652,4.062-6.551,4.547c-2.799-0.473-4.833-2.045-6.335-4.393c-0.772-1.451-1.446-2.919-0.58-4.575
	c3.718-1.962,5.916-4.461,3.763-9c-0.937-1.977,0.874-4.192,0.011-6.313c-1.08-0.903-1.821-1.831-0.447-3.112
	c9.182-8.553,18.829-16.385,31.09-20.196c2.137,2.278,6.113,2.738,6.602,6.66c1.068,3.294,2.584,6.431,3.404,9.81
	c0.023,0.815-0.135,1.593-0.5,2.322c-1.411,2.181-5.185,3.141-3.572,7.369c2.31-1.445,1.844-4.576,4.031-5.647
	c0.469-0.248,0.961-0.432,1.474-0.563c5.198-2.644,11.398-4.208,11.787-11.752c0.15-2.909,2.355-4.269,4.886-4.299
	c4.178-0.049,6.6-2.39,9.101-5.295c2.333-2.71,4.896-5.601,9.169-5.063c5.16,7.01,11.484,12.934,17.691,18.966
	c2.335,2.729,1.127,3.931-1.873,4.373C122.424,138.494,120.794,138.442,119.173,138.15z"/>
<path fill-rule="evenodd" clip-rule="evenodd" fill="#C23432" d="M237.627,158.071c-5.413,2.987-11.472,4.545-16.73,7.958
	c-8.206,5.325-15.769,11.233-21.274,19.479c-0.955,1.431-1.946,3.285-4.328,1.768c-2.013-1.283-5.221-1.341-4.658-5.018
	c1.857-12.144-2.98-20.531-14.208-25.374c-3.883-1.674-1.554-5.13-1.997-7.755c-0.444-2.626,1.854-2.081,3.331-2.364
	c5.552-1.066,11.104-2.123,16.657-3.183c0.42,5.302,4.498,5.417,8.343,5.865c1.454,0.356,2.891,0.433,4.306-0.14
	c8.61-3.48,16.086-0.382,23.119,4.283C232.614,155.202,235.514,155.984,237.627,158.071z"/>
<path fill-rule="evenodd" clip-rule="evenodd" fill="#C95B5C" d="M134.763,277.21c-1.565,3.068-3.455,5.869-6.421,7.781
	c-0.362-7.07-4.04-9.947-11.802-11.832c-3.898-0.946-3.51,2.646-4.888,4.379c-2.14,1.636-2.385,4.619-4.474,6.292
	c-0.926,0.076-1.52-0.555-2.255-0.9c-3.97-1.866-4.512-11.278-11.987-5.603c-0.384,0.291-1.472-0.073-2.088-0.4
	c-4.9-2.602-10.042-2.151-15.509-1.257c8.1-2.95,12.837-11.662,22.196-11.632c1.176,0.003,2.73,0.691,3.05-1.262
	c0.3-1.831-1.102-1.711-2.336-2.182c-5.313-2.03-6.047-4.358-3.052-8.74c2.594-4.664,7.891-2.644,11.546-4.679
	c0.545-1.017,3.025,0.773,2.173-0.596c-3.644-5.857,0.032-9.634,3.104-13.727c0.56-0.045,0.988,0.179,1.31,0.629
	c0.876,1.661,0.598,3.567,1.134,5.298c3.573,3.854,6.024,8.704,10.626,11.643c1.304,0.832,1.99,2.153,1.008,3.758
	c-2.042,0.485-3.769-1.245-5.95-0.747c2.279,0.845,5.52,0.22,5.717,3.879c-0.729,2.846-1.553,5.341,3.273,5.044
	c3.335-0.205,4.431,2.962,2.675,6.336c-0.908,1.742-3.112,2.682-3.139,4.94C130.311,275.599,134.876,272.397,134.763,277.21z"/>
<path fill-rule="evenodd" clip-rule="evenodd" fill="#C12A21" d="M240.75,166.921c5.506-2.209,11.323-2.731,17.156-3.065
	c1.527-0.087,3.578-0.492,3.795,1.994c0.939,10.739,1.666,21.473-2.086,31.908c-1.319,1.1-2.142,2.507-2.232,4.213
	c-0.116,2.178-0.386,3.922-3.3,3.83c-2.426-0.077-2.733,1.981-2.999,3.82c-0.282,1.964,0.021,4.019-0.935,5.884
	c-0.646,0.976-1.56,1.554-2.676,1.843c-5.018,0.858-10.192-1.019-15.196,1.061c-1.575,0.654-3.241-0.255-3.955-2.107
	c0.187-0.862,0.239-1.795,1.188-2.256c2.824-1.801,3.913-4.589,4.396-7.722l-0.061,0.11c3.668-7.139,6.18-14.597,6.398-22.714
	C240.396,178.12,239.785,172.496,240.75,166.921z"/>
<path fill-rule="evenodd" clip-rule="evenodd" fill="#C23636" d="M191.161,88.284c2.662-0.362,4.992,0.879,7.444,1.535
	c0.894,1.992-1.136,3.651-0.556,5.966c2.456-0.417,3.537-2.651,5.257-3.93c7.939,2.033,14.435,6.796,21.135,11.175
	c1.757,1.148,1.822,2.433,0.727,4.155c-3.059,4.807-6.519,9.251-10.676,13.184c-1.772,1.677-3.179,1.32-4.812,0.079
	c-10.395-7.899-22.496-11.27-35.128-13.23c-0.503-0.979-0.159-2.027,0.582-2.425c2.701-1.448,1.231-2.686-0.028-4.004
	c-0.108-1.179,0.488-2.062,1.196-2.914c4.472-5.384,4.401-5.896-1.309-9.834c-0.602-0.558-1.077-1.156-0.628-2.035
	c4.675-1.525,9.078-0.192,13.469,1.277c0.423,0.549,0.862,1.089,1.301,1.622c0.487,0.594,0.295,1.793,1.508,1.755
	C190.362,89.768,190.449,88.958,191.161,88.284z"/>
<path fill-rule="evenodd" clip-rule="evenodd" fill="#C12920" d="M237.627,158.071c-2.762,0.375-4.948-0.909-7.08-2.412
	c-7.254-5.108-14.71-8.97-23.85-4.558c-1.393,0.673-3.273,0.755-4.572-0.795c-0.389-2.149,1.988-3.716,1.25-5.942
	c8.306-1.227,12.369-6.61,14.049-14.332c0.866-0.956,1.731-1.912,2.598-2.868c9.094-2.298,17.532,0.974,22.495,8.595
	c1.041,1.6,1.855,3.112,1.249,5.043c-1.693,4.339,1.455,5.008,4.384,5.375c3.086,0.386,5.688,1.15,6.914,4.327
	c0.837,0.307,1.665,0.638,2.512,0.913c1.682,0.546,4.96-1.148,4.74,1.811c-0.186,2.51-3.367,1.025-5.198,1.366
	c-2.108,0.393-4.427-0.652-6.371,0.922C246.373,156.368,242,157.22,237.627,158.071z"/>
<path fill-rule="evenodd" clip-rule="evenodd" fill="#C23634" d="M194.62,246.065c-0.34-2.874,2.07-4.16,3.836-4.771
	c7.837-2.711,13.783-8.13,20.054-13.125c1.834,1.17,1.595,3.171,1.937,4.922c0.439,2.259,1.455,4.16,3.301,5.551
	c1.195,0.899,2.586,1.808,4.025,0.854c1.688-1.118,0.222-2.574,0.149-3.931c-0.252-4.733-3.727-8.884-2.427-13.86
	c3.681,0.502,6.85,2.416,10.157,3.859c2.974,1.299,4.267,4.607,2.219,6.744c-2.401,2.505-1.985,4.233-0.839,6.723
	c0.321,0.699-0.062,1.792-0.683,2.54c-4.108,4.074-8.217,8.148-12.325,12.223c-1.351,2.625-3.289,4.589-6.168,5.502
	c-1.667,0.709-3.275,1.537-4.856,2.426c-1.61,0.846-3.25,1.627-4.894,2.4c-3.266,1.535-5.988,1.171-7.896-2.184
	c-0.526-0.602-0.988-1.251-1.41-1.929c-2.04-3.376-3.073-7.12-3.945-10.923C194.555,248.098,195.023,247.05,194.62,246.065z"/>
<path fill-rule="evenodd" clip-rule="evenodd" fill="#C44242" d="M134.763,277.21c-0.819-1.913-2.095-2.1-3.985-1.425
	c-1.465,0.521-3.44,1.049-4.402-0.75c-0.978-1.827,0.98-2.918,1.801-4.231c0.461-0.738,1.262-1.278,1.955-1.854
	c1.479-1.228,1.629-2.89,1.137-4.485c-0.731-2.375-2.399-0.532-3.633-0.54c-1.644-0.012-3.34,0.274-4.424-1.395
	c-1.596-2.456,2.084-3.162,1.751-5.208c0.727-0.695,0.118-2.107,1.356-2.529c4.47,1.485,8.982,3.4,12.824-1.279
	c1.291-3.165-0.198-4.702-3.126-5.479c-1.54-0.408-3.232-0.37-4.549-1.48c-0.254-0.497-0.215-0.959,0.16-1.382
	c1.4-0.29,2.809-0.546,4.199-0.88c1.496-0.359,3.946,1.508,4.277-1.569c0.232-2.161-1.885-2.491-3.269-3.056
	c-4.811-1.961-8.355-5.579-12.142-8.895c2.286-4.763,6.386-1.905,9.708-2.312c3.586-0.713,7.614-1.114,7.823,3.769
	c0.277,6.454,3.75,9.737,9.143,11.894c-0.162,0.513-0.182,1.348-0.505,1.489c-5.275,2.302-3.492,3.858,0.477,5.318
	c0.421,0.154,0.667,0.786,0.996,1.196c-4.659,6.63-4.659,6.63,1.436,15.414c0.303,0.657,0.766,1.233,1.081,1.876
	c2.583,5.269,6.685,6.417,11.955,4.486c0.112,2.805-2.102,5.664,0.289,8.438c0.602,0.698,0.832,1.79-0.302,2.293
	c-0.966,0.429-1.801-0.105-2.233-1.04c-2.258-4.889-5.096-2.644-7.741-0.528c-1.01,0.808-1.704,2.138-3.178,1.169
	c-1.428-0.939-2.49-2.165-2.014-4.138c0.34-1.408,0.688-2.846,0.743-4.281c0.053-1.39-0.711-2.667-2.174-2.76
	c-2.594-0.165-0.991,1.73-1.071,2.703c-0.241,2.923-2.222,3.351-3.54,1.499C141.762,271.889,138.377,273.473,134.763,277.21z"/>
<path fill-rule="evenodd" clip-rule="evenodd" fill="#C44446" d="M185.86,286.132c-1.326,0.101-2.541,1.687-4.854-0.48
	c8.17-1.438,16.867,0.053,22.217-7.3c2.28-1.225,3.233,0.042,3.801,2.027c0.319,1.117-0.511,2.531,0.869,3.376
	c3.392,1.488,6.408,3.482,8.682,6.471c3.901,1.387,8.566,1.341,10.843,5.777c0.055,0.361,0.109,0.721,0.164,1.082
	c-2.09,3.776,0.138,14.197,3.487,16.326c1.673,1.063,3.153,0.371,4.59-0.521c1.706-1.062,3.325-2.352,5.303-2.812
	c3.018-0.703,5.193-0.134,4.524,3.747c-2.178,2.771-5.607,1.676-8.836,2.767c1.896-0.354,3.279-0.616,3.048,1.606
	c-13.095,1.646-25.736-0.583-38.118-4.652c-1.996-0.655-3.859-0.892-5.865-0.589c-2.751-1.746-7.487,1.257-8.89-3.716
	c-0.081-1.091-0.162-2.181-0.242-3.271c3.553-0.885,4.596,3.311,8.236,3.601c9.626,0.769,16.893-3.921,18.087-13.212
	c0.211-1.644-0.21-2.489-2.071-1.969c-6.58,1.842-12.551-0.453-18.513-2.775C189.166,290.967,187.885,288.111,185.86,286.132z"/>
<path fill-rule="evenodd" clip-rule="evenodd" fill="#C2302E" d="M242.955,141.323c-0.665-5.64-4.599-10.114-9.611-10.928
	c-0.18-0.029-0.444,0.057-0.537-0.04c-3.597-3.748-8.338-2.878-12.785-3.191c4.89-4.686,9.05-9.966,12.735-15.633
	c2.432-1.75,4.721-0.83,7.21,0.089c5.306,1.958,10.196,4.545,14.896,7.721c5.473,3.697,6.455,3.361,11.172-1.419
	c1.394-1.413,2.557-3.174,4.856-3.154c0.956,0.009,1.205,0.55,0.845,1.405c0.434,1.02,0.869,2.04,1.304,3.06
	c0.675,5.01-3.714,7.05-6.13,10.19c-1.182,1.534-3.104,2.483-4.49,3.934c-3.504,3.526-7.043,7.004-12.128,8.195
	C247.845,141.544,245.331,143.491,242.955,141.323z"/>
<path fill-rule="evenodd" clip-rule="evenodd" fill="#C23535" d="M271.735,116.174c-1.464-1.362-2.438-0.082-3.147,0.815
	c-8.628,10.887-9.489,6.334-18.429,1.115c-5.496-3.21-10.992-5.986-17.402-6.571c5.723-9.102,9.123-19.017,10.399-29.677
	c4.657,1.428,7.425,5.114,9.595,8.985c2.302,4.104,6.373,7.262,6.272,12.827c-0.042,2.36,2.689,2.347,4.838,1.328
	c2.893-1.373,5.868-2.234,8.782,0.043C272.717,108.78,273.667,112.595,271.735,116.174z"/>
<path fill-rule="evenodd" clip-rule="evenodd" fill="#C33939" d="M95.114,71.892c0.001,9.068,1.91,17.813,4.479,26.447
	c0.729,1.533,0.263,2.477-1.424,2.679c-2.002,0.239-4.014-0.091-6.015-0.009c-1.692-0.066-3.316,0.142-4.211,1.817
	c-2.559,4.787-6.645,4.951-11.192,3.806c-3.499-0.929-5.188,2.425-7.906,3.354c-1.272,0.134-1.878-0.708-2.414-1.65
	c-0.423-6.294-1.015-12.597,1.001-18.761c6.187-1.416,12.295-3.578,18.248,1.174c2.428,1.938,3.106-0.019,2.733-2.336
	c-0.152-3.731,1.774-7.366,0.043-11.248c-0.684-1.534,0.365-3.501,1.965-4.69C91.917,71.711,93.424,71.053,95.114,71.892z"/>
<path fill-rule="evenodd" clip-rule="evenodd" fill="#C44143" d="M108.239,114.974c-3.623,2.04-7.22,3.929-9.612,7.715
	c-1.588,2.514-3.842,4.477-7.716,3.795c-2.87-0.504-5.16,1.165-4.718,4.898c0.441,3.729-0.86,6.06-5.018,7.001
	c-2.925,0.661-3.977,5.736-8.3,4.104c-1.354-10.029,5.256-17.003,9.707-24.725c2.158-3.745,4.943-7.182,7.914-10.404
	c4.104-2.611,8.251-2.76,12.445-0.223C105.082,109.496,107.059,111.966,108.239,114.974z"/>
<path fill-rule="evenodd" clip-rule="evenodd" fill="#C23535" d="M245.204,313.646c-0.475-3.839-2.546-3.133-5.061-1.929
	c-9.491,4.548-9.407,4.462-14.26-5.338c-1.013-2.044-1.704-3.908-1.707-6.182c-0.004-2.471,1.203-3.243,3.404-3.114
	c4.494-1.814,6.922,3.218,10.851,3.275c2.871-1.038,5.092,0.187,7.13,2.048c3.191,0.495,6.384,0.99,9.575,1.484
	c1.138,0.572,2.298,1.081,3.515,1.479c1.496,0.489,3.713,0.224,4.146,2.052c0.536,2.259-1.456,3.647-3.043,4.744
	c-2.137,1.478-3.96,3.153-5.309,5.363c-1.056,0.976-2.262,1.481-3.721,1.203C248.219,317.764,245.186,317.358,245.204,313.646z"/>
<path fill-rule="evenodd" clip-rule="evenodd" fill="#C44242" d="M103.833,27.84c-1.385-0.234-3.242,0.651-4.063-0.785
	c-0.768-1.345,0.762-2.317,1.686-3.112c14.189-12.208,30.5-20.112,48.827-23.843c1.219-0.248,2.532-0.032,4.1,0.556
	c-19.225,4.488-33.733,15.815-45.942,30.544c-1.934,0.546-1.781-1.228-2.275-2.153C105.622,28.03,105.165,27.186,103.833,27.84z"/>
<path fill-rule="evenodd" clip-rule="evenodd" fill="#C44242" d="M101.676,38.944c1.06-0.044,2.651-0.323,1.608,1.503
	c-4.804,8.413-6.088,17.852-8.112,27.081c-3.401,2.012-6.334,1.936-8.116-2.083c-1.111-2.506-3.852-3.372-5.224-5.566
	c-0.333-0.449-0.693-0.875-1.082-1.275c-0.146-0.233-0.209-0.487-0.191-0.762c-0.208-4.44,2.917-5.51,6.319-5.833
	c2.838-0.269,4.371-1.133,4.304-4.284c-0.194-9.19,0.04-9.347,9.419-8.667C100.961,39.083,101.318,39.053,101.676,38.944z"/>
<path fill-rule="evenodd" clip-rule="evenodd" fill="#D99798" d="M261.64,132.426c3.917-4.296,9.349-7.285,11.399-13.193
	c3.332,2.697,7.851,3.457,10.871,6.661c-1.438,3.677-5.072,5.317-7.521,8.064c-2.55,2.86-4.748,5.77-4.427,9.869
	c-1.893,1.432-3.786,2.864-5.68,4.295c-1.803,2.009-3.778,1.281-3.894-0.818C262.116,142.352,259.827,137.471,261.64,132.426z"/>
<path fill-rule="evenodd" clip-rule="evenodd" fill="#D58A8E" d="M264.157,60.816c3.232,6.685,5.211,13.744,6.296,21.07
	c-2.172,0.655-3.154,2.379-3.891,4.337c-0.387,0.365-0.835,0.589-1.354,0.689c-0.56,0.018-1.094-0.16-1.633-0.197
	c-5.989-0.408-9.438-3.293-9.461-9.586c-0.273-1.145-0.421-2.301-0.432-3.479c-0.396-4.528,1.931-7.992,4.379-11.442
	C259.723,59.867,261.688,59.369,264.157,60.816z"/>
<path fill-rule="evenodd" clip-rule="evenodd" fill="#E1AFB2" d="M271.962,143.828c-2.092-0.822-5.392-0.122-1.304-4.159
	c2.416-2.386,4.605-5.805,7.051-8.716c1.849-2.201,4.092-3.438,6.201-5.058c6.422,3.24,12.775,6.58,17.687,12.038
	c-8.39-1.698-16.369-1.769-22.528,5.577C276.839,146.169,274.284,142.644,271.962,143.828z"/>
<path fill-rule="evenodd" clip-rule="evenodd" fill="#DEA6A8" d="M68.649,109.539c2.318-1.852,3.316-5.997,7.626-4.391
	c1.313,0.486,2.15,1.659,3.854,1.729c5.936,0.245,5.931,0.38,4.597,6.416c-2.153,4.204-2.959,9.521-9.822,9.11
	c-2.83-0.17-2.761,3.022-2.331,5.186c0.717,3.604,0.447,7.264,0.917,10.874c0.111,0.859,0.027,2.035-1.311,1.794
	c-1.059-0.19-0.737-1.523-1.294-2.195c-1.902-3.027-2.498-6.534-3.617-9.849c-0.262-3.121-2.156-5.856-2.135-9.043
	c1.288-1.143,1.446-2.653,1.379-4.237c1.737-0.07,1.353,0.961,1.293,1.618C68.601,114.55,66.119,111.665,68.649,109.539z"/>
<path fill-rule="evenodd" clip-rule="evenodd" fill="#C44444" d="M272.644,105.038c-2.824,0.287-5.831-0.863-8.422,1.291
	c-1.431,1.189-3.247,2.264-4.877,0.584c-1.448-1.493-3.328-2.979-2.863-5.547c0.19-1.051,0.396-2.101,0.597-3.151
	c-6.103-1.113-3.652-9.765-9.518-10.906c-3.241-0.631-1.123-5.137-4.404-5.453c-0.376-1.907,0.619-3.269,1.813-4.551
	c4.158,0.416,6.422,3.7,9.007,6.28c2.605,2.602,5.258,5.09,8.596,6.575c3.075,1.368,4.334,3.269,2.871,6.404
	c-2.16,4.626,0.408,4.05,3.355,3.156c1.423-0.299,2.749-0.205,3.82,0.928C272.627,102.11,272.636,103.574,272.644,105.038z"/>
<path fill-rule="evenodd" clip-rule="evenodd" fill="#C95E5F" d="M250.722,318.019c1.097-0.357,2.193-0.715,3.29-1.072
	c2.983-1.817,6.381-2.586,9.707-3.147c3.856-0.652,7.183-2.236,10.427-4.213c1.276-0.618,2.536-1.463,3.973-0.377
	c-0.825,2.209,0.786,4.31,1.917,4.908c2.114,1.122,3.741,1.321,1.419,3.918c-1.892,2.113-3.768,2.797-6.079,0.994
	c-0.833-0.649-1.217-1.987-2.099-2.443c-1.99-1.03-4.445-2.064-4.679,1.681c-0.285,4.58-3.037,5.951-7.079,6.781
	c-3.979,0.816-6.747,0.819-9.001-3.394c-0.958-1.789-4.253-2.328-6.485-3.436C247.545,316.979,249.129,317.408,250.722,318.019z"/>
<path fill-rule="evenodd" clip-rule="evenodd" fill="#CE7377" d="M264.157,60.816c-5.178,0.482-8.902,5.96-9.043,13.3
	c-3.252,0.76-6.395,2.001-9.768,2.23c0.693-4.106-0.76-7.944-1.492-11.872c0.548-3.3,5.455-8.73,8.748-8.948
	c2.978-0.196,6.182-1.005,8.983,0.981C262.443,57.944,263.3,59.38,264.157,60.816z"/>
<path fill-rule="evenodd" clip-rule="evenodd" fill="#E2B4B7" d="M242.889,55.356c0.684-5.63-6.759-9.66-3.435-16.174
	c5.447,5.347,6.359,5.359,10.937,0.291c2.384,4.414,7.318,7.118,7.908,12.625C253.927,56.8,248.555,56.776,242.889,55.356z"/>
<path fill-rule="evenodd" clip-rule="evenodd" fill="#C44143" d="M275.006,310.348c-6.094,5.075-13.602,5.655-20.994,6.599
	c0.632-2.143,0.803-4.309,3.874-4.955c1.645-0.345,2.916-2.463,5.004-4.375c-3.343-0.758-6.47-0.68-7.753-3.725
	c6.93-0.458,13.859-0.916,20.788-1.374c1.488-0.506,1.77,0.857,1.183,1.3C274.776,305.576,275.376,308.081,275.006,310.348z"/>
<path fill-rule="evenodd" clip-rule="evenodd" fill="#D4858A" d="M3.521,193.343c1.08-7.027,3.459-13.64,6.407-20.07
	c1.704,1.786,3.349,3.3,5.635,0.604c1.113-1.311,2.732-1.627,4.43-1.001c0.708,0.354,1.253,0.882,1.659,1.558
	c0.736,2.007,0.879,4.092-1.301,5.114c-2.689,1.263-0.472,2.577-0.352,3.871c-1.279,2.229-2.867,4.179-5.039,5.604
	c-1.594,0.631-2.317,2.136-3.401,3.297C9.218,194.828,6.527,195.584,3.521,193.343z"/>
<path fill-rule="evenodd" clip-rule="evenodd" fill="#CB6667" d="M145.916,110.755c-4.109,2.051-8.218,4.103-12.327,6.154
	c-3.588,0.591-5.971-0.714-5.391-4.555c0.664-4.393-1.94-3.829-4.517-3.529c-2.333,0.271-4.223,2.129-6.699,1.982
	c-1.104-2.238-4.268-3.808-2.29-7.047c2.832-0.698,5.692-1.397,8.544-1.853c5.323-0.851,10.736-1.266,13.974,4.651
	c1.833,3.351,5.259-0.27,7.507,1.537c0.521,0.262,0.961,0.62,1.332,1.067C146.355,109.724,146.31,110.254,145.916,110.755z"/>
<path fill-rule="evenodd" clip-rule="evenodd" fill="#C4403E" d="M183.358,0.871c5.157-1.737,8.644-0.188,12,0.625
	c10.422,2.522,20.119,6.888,29.128,12.724c1.059,0.686,3.214,1.317,0.651,2.98c-1.546,1.004-1.792,5.407-4.58,2.853
	C210.226,10.589,198.171,4.534,183.358,0.871z"/>
<path fill-rule="evenodd" clip-rule="evenodd" fill="#C75555" d="M101.676,38.944c-0.463,0.274-0.894,0.678-1.393,0.8
	c-2.576,0.636-5.759-1.048-7.76,1.419c-1.905,2.348,0.636,4.855,0.523,7.059c-0.112,2.21-0.043,6.628-5.247,5.082
	c-3.594-1.068-5.585,1.786-7.24,4.538c-3.45,0.186-4.702-0.871-2.532-4.181c2.692-4.105,5.114-8.394,7.92-12.417
	C88.983,36.892,95.303,36.095,101.676,38.944z"/>
<path fill-rule="evenodd" clip-rule="evenodd" fill="#CE7276" d="M200.833,260.844c1.785,3.281,4.181,3.779,7.347,1.828
	c1.508-0.929,3.249-1.478,4.884-2.198c1.225,3.832,3.464,7.273,4.341,11.24c-1.493,4.689-6.217,5.533-9.554,8.029
	c-0.151-0.104-0.417-0.19-0.438-0.315c-0.942-5.803-4.958-8.986-9.771-11.498c-0.993-2.355,1.183-3.583,1.891-5.338
	C199.854,261.927,200.238,261.306,200.833,260.844z"/>
<path fill-rule="evenodd" clip-rule="evenodd" fill="#C8585A" d="M166.796,295.932c4.693-0.001,9.22,1.82,13.979,1.234
	c1.373-0.169,3.221,0.759,2.246,1.952c-2.231,2.735,1.566,2.99,1.432,4.676c-1.639-0.363-3.266-0.738-4.539,0.874
	c-3.517,4.458-8.399,2.846-12.705,2.376c-3.442-0.375-0.502-4.726-2.732-6.333C163.721,298.376,165.175,297.113,166.796,295.932z"/>
<path fill-rule="evenodd" clip-rule="evenodd" fill="#C85A5B" d="M151.366,244.123c-7.022-0.004-9.617-2.224-9.919-9.041
	c-0.208-4.707-2.163-7.107-7.046-6.621c5.67-1.539,11.355-4.464,16.959,0.182c-0.965,2.993-0.965,2.993-3.831,5.909
	c2.416-1.384,3.604-3.632,5.991-2.655C153.019,236.011,153.055,240.219,151.366,244.123z"/>
<path fill-rule="evenodd" clip-rule="evenodd" fill="#C65350" d="M123.651,137.141c2.644,0.275,2.985-1.09,2.28-3.201
	c5.287,2.803,10.573,5.606,15.86,8.409c-4.681,2.872-8.706,6.007-10.797,11.651c-2.14,5.772-8.868,5.577-13.594,7.892
	c-1.443,0.706-1.22-1.662-1.324-2.827c1.696-3.803,3.725-6.841,8.667-7.026c4.172-0.156,4.677-4.057,5.538-7.219
	c0.986-3.62-1.74-4.245-4.196-5.152C124.934,139.243,123.56,138.844,123.651,137.141z"/>
<path fill-rule="evenodd" clip-rule="evenodd" fill="#C75354" d="M245.347,76.346c2.938-2.134,5.975-3.838,9.768-2.23
	c0.019,1.087,0.037,2.175,0.055,3.263c0.604,0.783,0.588,1.724,0.465,2.592c-0.593,4.177,1.437,6.193,5.388,6.191
	c1.721-0.001,3.423,1.682,5.151,0.113l0.008,0.001c1.045-0.289,2.197,0.25,2.198,1.029c0.006,4.433,2.222,8.881-0.01,13.3
	c-1.529,3.095-4.229,1.435-5.587,0.566c-1.783-1.141,0.21-2.876,0.992-4.151c1.6-2.607,2.083-3.931-1.716-5.553
	c-6.935-2.96-11.1-9.757-17.089-14.163C245.012,76.952,245.138,76.633,245.347,76.346z"/>
<path fill-rule="evenodd" clip-rule="evenodd" fill="#C65052" d="M275.006,310.348c-0.604-1.587-0.271-4.436,0.92-7.83
	c11.331-3.476,22.11-8.093,31.692-15.323c-7.381,10.68-18.587,16.151-29.5,22.015C277.08,309.588,276.043,309.969,275.006,310.348z"
	/>
<path fill-rule="evenodd" clip-rule="evenodd" fill="#C54747" d="M7.784,206.599c-1.967,10.596-4.022,21.185-2.17,32.237
	c-4.59-2.882-7.276-23.55-4.469-32.299C3.375,204.727,5.593,204.245,7.784,206.599z"/>
<path fill-rule="evenodd" clip-rule="evenodd" fill="#C02F28" d="M225.364,222.196c2.77,4.357,2.61,9.64,4.505,14.277
	c0.531,1.298,1.596,2.761,0.093,4.019c-1.479,1.238-3.08,1.563-5.08,0.671c-5.827-2.6-5.651-7.982-6.372-12.994
	c1.808-2.08,3.615-4.16,5.423-6.24C224.521,221.424,224.998,221.513,225.364,222.196z"/>
<path fill-rule="evenodd" clip-rule="evenodd" fill="#C54847" d="M331.195,209.922c2.619,0.114,3.562-2.587,5.649-3.364
	c2.362,9.059,1.419,18.152-0.184,27.137c-0.984,5.515-1.973,11.14-5.094,16.228C334.351,236.519,334.392,223.189,331.195,209.922z"
	/>
<path fill-rule="evenodd" clip-rule="evenodd" fill="#D58A8F" d="M80.75,58.604c0.307,0.034,0.613,0.073,0.918,0.118
	c2.14,3.4,5.719,5.71,7.264,9.567c1.734,1.639,1.528,3.334,0.159,5.067c-0.521,0.632-1.139,1.141-1.891,1.476
	c-2.583,0.867-4.951,0.437-7.072-1.258c-2.701-2.158-4.832-2.847-5.165,1.805c-0.134,1.877-1.175,2.937-3.112,3.023
	c-0.836-0.042-1.551-0.354-2.132-0.959c0.412-4.961,3.3-8.844,5.585-13.004c0.526-0.958,1.171-1.358,2.083-1.266
	C81.154,63.555,80.705,60.913,80.75,58.604z"/>
<path fill-rule="evenodd" clip-rule="evenodd" fill="#BB453F" d="M225.364,222.196c-0.477-0.089-0.954-0.179-1.431-0.269
	c1.462-1.874,2.924-3.75,4.388-5.626c1.445,0.687,2.879,1.728,4.551,0.801c4.74-2.629,9.655-0.584,14.489-0.624
	c0.018,2.838-2.563,2.17-4.032,3.005c-3.211-0.26-5.982,1.395-8.914,2.14c2.068,0.763,4.663-0.49,6.546,1.432
	c-0.408,5.23-0.968,10.442-1.966,15.6c-0.882,0.973-1.764,1.944-2.646,2.917c-0.004-0.547,0.205-1.229-0.044-1.618
	c-1.964-3.067-4.5-5.823,0.845-8.562c1.213-0.622,0.414-4.169-2.432-4.939C231.372,225.546,228.186,224.268,225.364,222.196z"/>
<path fill-rule="evenodd" clip-rule="evenodd" fill="#C75354" d="M175.654,87.341c6.9,3.191,7.337,6.261,1.631,11.128
	c-0.67,0.572-1.116,1.405-1.667,2.117c-2.016,4.928-6.099,6.045-10.867,5.895c-0.962-0.916-0.802-1.859-0.072-2.814
	c0.373-0.328,0.791-0.604,1.222-0.841c2.097-1.244,1.585-3.027,0.981-4.826c-0.059-0.228-0.11-0.457-0.162-0.686
	c0.153-2.092,0.928-3.934,2.239-5.56C171.038,90.052,174.182,89.963,175.654,87.341z"/>
<path fill-rule="evenodd" clip-rule="evenodd" fill="#CE8180" d="M238.995,238.654c-1.169-5.377-0.321-10.533,1.712-15.559
	c-0.665-2.208,1.751-2.811,2.289-4.392c1.005-1.626,3.562-0.205,4.365-2.226c0.672-0.406,1.343-0.813,2.013-1.218
	c1.612-0.894,2.731-0.375,3.479,1.213C248.396,223.968,244.929,232.082,238.995,238.654z"/>
<path fill-rule="evenodd" clip-rule="evenodd" fill="#DFB9B8" d="M166.671,103.807l-0.432,0.001l-0.43-0.032
	c-6.266,0.453-12.391-0.076-18.231-2.629c-0.797-0.365-1.289-0.996-1.594-1.798c-0.509-1.684-0.394-3.367-0.024-5.053
	c0.437-1.623,0.784-3.287,1.942-4.607c1.816,1.285,2.311,5.248,6.205,1.849c2.706-2.362,4.76,2.808,4.658,3.253
	c-1.754,7.681,1.912,4.79,5.273,2.933c0.742-0.41,1.779-0.287,2.681-0.409l0.396-0.159
	C168.003,99.442,167.997,101.669,166.671,103.807z"/>
<path fill-rule="evenodd" clip-rule="evenodd" fill="#C03127" d="M161.261,197.842c-3.25,3.583-4.746,9.061-10.611,9.816
	c-0.763-2.046-1.673-4.052-2.25-6.149c-0.623-2.266-4.039-4.449-0.116-6.983c3.238-2.093,6.075-3.05,9.048,0.39
	C158.374,196.122,159.936,196.88,161.261,197.842z"/>
<path fill-rule="evenodd" clip-rule="evenodd" fill="#D38285" d="M144.717,109.411c-1.159-0.453-2.249-1.203-3.585-0.396
	c-3.11,1.877-5.089,2.195-5.549-2.61c-0.293-3.074-7.221-4.672-12.54-3.114c-2.806,0.823-5.471,1.873-8.349,0.471
	c4.853-3.235,10.185-5.738,14.622-9.604c1.852,0.22,3.2,4.694,5.563,0.653c0.538-0.089,1.01,0.042,1.428,0.387
	c0.796,5.51,3.494,9.633,8.705,11.925C145.382,107.946,145.368,108.72,144.717,109.411z"/>
<path fill-rule="evenodd" clip-rule="evenodd" fill="#C64C4C" d="M58.45,248.197c0.485-0.587,0.971-1.173,1.457-1.76
	c0.612-0.767,1.217-0.771,1.814,0.018c2.199,4.254,5.367,6.755,10.74,5.545c-4.265,2.502-9.537,4.075-5.213,10.447
	c0.691,1.019-0.401,2.12-1.451,2.51c-1.856,0.688-3.485,0.319-4.877-1.291c-2.979-3.447-2.872-7.992-4.425-11.939
	C55.566,249.675,58.053,249.515,58.45,248.197z"/>
<path fill-rule="evenodd" clip-rule="evenodd" fill="#C85755" d="M116.983,110.808c3.044-3.601,7.113-3.983,11.388-3.51
	c1.456,0.162,2.941,0.247,1.584,2.664c-2.126,3.788-0.265,6.031,3.634,6.948C125.445,123.021,124.831,122.795,116.983,110.808z"/>
<path fill-rule="evenodd" clip-rule="evenodd" fill="#C44343" d="M60.866,301.533c1.307,2.483,2.665,4.954,2.096,7.933
	c-9.09-3.105-16.975-8.254-24.311-14.334c-0.49-1.012-0.672-1.999,0.229-2.901C46.269,295.189,53.162,299.322,60.866,301.533z"/>
<path fill-rule="evenodd" clip-rule="evenodd" fill="#C54643" d="M164.46,106.003c4.65,0.114,7.826-2.814,11.159-5.417
	c0.938,2.013,3.038,0.102,4.427,1.326c-0.789,2.872-4.926,2.33-5.493,5.304c-9.761-0.559-19.149,1.895-28.637,3.54
	c-0.044-0.451-0.088-0.901-0.132-1.352c-0.673-1.25-0.722-2.582-0.525-3.945c1.282-2.07,3.91-0.913,5.49-2.292
	C155.324,104.091,160.603,101.628,164.46,106.003z"/>
<path fill-rule="evenodd" clip-rule="evenodd" fill="#C33734" d="M217.424,130.033c2.021,7.498-4.887,14.671-14.193,14.74
	c-3.271,1.274-3.735-1.219-4.477-3.337C205.212,138.019,211.731,134.702,217.424,130.033z"/>
<path fill-rule="evenodd" clip-rule="evenodd" fill="#D27F82" d="M83.916,112.702c0.649-3.477,1.342-6.958-4.327-4.935
	c-2.395,0.854-2.344-1.57-3.313-2.619c4.411,0.846,8.907,2.331,10.701-4.142c0.547-1.973,3.026-1.49,4.821-1.425
	c2.079,3.288,6.178,2.324,8.911,4.237c0.744,1.106,1.488,2.212,2.232,3.318c-4.123-0.053-8.358-1.22-12.229,1.231
	C88.084,109.246,87.675,113.601,83.916,112.702z"/>
<path fill-rule="evenodd" clip-rule="evenodd" fill="#C54948" d="M92.843,248.473c-1.76,0.843-3.988,3.207-3.566-1.549
	c0.199-2.239-1.9-3.29-3.764-4.127c-0.631-4.639,0.132-5.508,5.944-6.789c1.38-0.081,2.529-0.967,3.883-1.156
	c3,0.938,5.362,2.447,5.37,6.046c-1.729,0.868-3.41,1.714-3.807,3.961C96.519,247.045,94.716,247.848,92.843,248.473z"/>
<path fill-rule="evenodd" clip-rule="evenodd" fill="#C75154" d="M89.503,88.425c0.824,1.653,1.901,3.368-0.112,4.891
	c-1.896,1.435-2.88-0.525-4.228-1.255c-4.106-2.226-8.034-5.424-13.055-1.698c-1.374,1.019-3.181-0.054-4.676-0.789
	c-0.785-2.114,0.958-3.657,1.247-5.529c0.507-2.851,1.373-5.252,5.101-4.071c0.799,0.34,1.429,0.891,1.923,1.593
	c1.38,5.015,5.849,5.12,9.752,5.996C86.795,87.863,88.329,87.264,89.503,88.425z"/>
<path fill-rule="evenodd" clip-rule="evenodd" fill="#DB9EA0" d="M217.401,258.183c2.208-1.463,4.415-2.926,6.623-4.389
	c0.063,1.421,1.076,2.054,2.035,2.948c3.825,3.568,3.248,8.382-0.771,11.703c-2.764,2.284-3.578-1.437-5.53-1.312
	C218.434,264.292,218.329,261.129,217.401,258.183z"/>
<path fill-rule="evenodd" clip-rule="evenodd" fill="#D0777C" d="M3.521,193.343c5.173,2.164,7.156-4.119,11.438-4.32
	c-2.26,5.148-4.521,10.298-6.783,15.446c-2.447,0.613-4.556-0.706-6.812-1.19C0.99,199.729,2.13,196.509,3.521,193.343z"/>
<path fill-rule="evenodd" clip-rule="evenodd" fill="#C44243" d="M166.796,295.932c0.207,2.069-1.775,3.075-2.32,4.779
	c-2.166-0.668-3.631,1.038-5.433,1.604c-1.102-3.417-4.038-2.851-6.621-3.051c-1.181-1.217,2.438-3.407-0.868-4.184
	c-1.226-0.35-2.45-0.691-2.907-2.09c-0.041-0.536,0.12-1.003,0.48-1.401c2.322-0.327,4.034-2.737,7.082,0.543
	C158.215,294.291,163.141,294.801,166.796,295.932z"/>
<path fill-rule="evenodd" clip-rule="evenodd" fill="#CB6569" d="M268.369,100.604c-1.52-4.656,0.251-9.814-2.188-14.329
	c0.036-2.813-0.395-6.083,4.272-4.39c1.723,6.139,2.439,12.393,2.166,18.762C271.202,100.632,269.785,100.618,268.369,100.604z"/>
<path fill-rule="evenodd" clip-rule="evenodd" fill="#CA6C69" d="M252.853,216.474c-1.159-0.404-2.317-0.809-3.477-1.213
	c0.104-2.174,0.116-4.356,0.336-6.519c0.435-4.291,1.883-5.251,6.288-4.307c0.841-2.416-1.035-6.336,3.615-6.678
	C258.679,204.473,256.04,210.572,252.853,216.474z"/>
<path fill-rule="evenodd" clip-rule="evenodd" fill="#D79093" d="M242.889,55.356c5.173-0.917,10.652-0.381,15.41-3.259
	c0.76,1.721,2.974,2.356,3.287,4.41c-7.316-0.474-13.67,1.193-17.73,7.966C241.938,61.604,243.547,58.36,242.889,55.356z"/>
<path fill-rule="evenodd" clip-rule="evenodd" fill="#C75354" d="M31.215,144.742c1.968,3.085,1.115,6.838,2.578,10.277
	c1.145,2.688-2.37,5.243-6.031,5.215c-0.775,0.148-1.308,0.9-2.156,0.867c-1.874-1.698-3.239-3.967-6.211-5.162
	C30.15,158.707,29.13,150.177,31.215,144.742z"/>
<path fill-rule="evenodd" clip-rule="evenodd" fill="#C95E60" d="M197.775,267.334c0.314,0.176,0.634,0.343,0.942,0.528
	c6.867,4.102,6.867,4.103,9.133,11.881c0.014,1.337,0.027,2.675,0.042,4.012c-2.372-1.096-0.617-5.759-4.669-5.404
	c-2.974-2.78-5.022-6.187-6.681-9.858C196.671,267.806,197.096,267.435,197.775,267.334z"/>
<path fill-rule="evenodd" clip-rule="evenodd" fill="#B5291F" d="M198.754,141.436c1.978,0.462,2.094,3.421,4.477,3.337
	c6.294,3.175-1.382,3.56-1.104,5.534c-8.27-0.091-9.356-1.038-7.707-6.725C195.864,142.866,197.309,142.15,198.754,141.436z"/>
<path fill-rule="evenodd" clip-rule="evenodd" fill="#C75454" d="M80.627,224.295c0.564,0.695,1.011,1.82,1.712,2.01
	c2.791,0.754,2.538,0.722-0.021,1.596c-1.191,0.407-1.622,2.713-2.683,3.905c-1.482,1.665-2.201,5.096-4.859,4.38
	c-2.611-0.703-3.117-3.706-2.888-6.411C73.733,226.244,76.705,224.511,80.627,224.295z"/>
<path fill-rule="evenodd" clip-rule="evenodd" fill="#C5494C" d="M40.906,164.476c-0.948-0.822-2.141-1.487-2.791-2.5
	c-1.147-1.788-2.604-3.81-0.086-5.711c2.213-1.672,4.439-1.766,6.119,0.641c1.451,2.079,3.059,3.563,5.757,3.344
	C46.905,161.658,43.906,163.066,40.906,164.476z"/>
<path fill-rule="evenodd" clip-rule="evenodd" fill="#C85757" d="M186.824,309.241c1.057,0.712,1.47,2.447,3.462,1.588
	c2.308-0.996,4.076,0.236,5.428,2.128c-3.329,2.466-6.542,5.097-11.071,5.043c-1.747-0.02-2.283-1.389-2.563-2.349
	c-0.282-0.971,1.299-0.248,1.876-0.797C185.577,313.314,186.978,311.681,186.824,309.241z"/>
<path fill-rule="evenodd" clip-rule="evenodd" fill="#D5888B" d="M217.401,258.183c4.346,2.047,2.31,5.773,2.356,8.951
	c-3.072,0.352-1.865,2.9-2.354,4.58c-1.696-3.649-6.019-6.285-4.339-11.239C214.51,259.71,215.956,258.945,217.401,258.183z"/>
<path fill-rule="evenodd" clip-rule="evenodd" fill="#DA9A9C" d="M195.588,248.349c1.373,3.793,2.745,7.587,4.117,11.38
	c-2.024,1.322-4.487,1.775-6.44,3.242c-1.927-3.515-3.906-7.007-4.521-11.059c0.406,0.031,0.813,0.063,1.22,0.097
	C193.683,253.622,194.188,250.298,195.588,248.349z"/>
<path fill-rule="evenodd" clip-rule="evenodd" fill="#D07878" d="M145.854,105.042c-0.023,1.454-0.045,2.908-0.069,4.362
	c0,0-0.533,0.013-0.533,0.013l-0.534-0.006c-0.029-0.767-0.057-1.533-0.085-2.299c-0.895-0.994-1.114-2.213-1.262-3.492
	c-0.839-7.289-0.85-7.287-7.452-8.524c-0.362,0.004-0.724,0.011-1.085,0.021c-0.699-1.508,0.807-2.45,0.958-3.739
	c3.371-0.571,6.742-1.142,10.113-1.712c0.662,1.37,0.375,2.979,1.086,4.336c-0.034,1.849-0.068,3.699-0.102,5.548
	C146.514,101.374,147.651,103.485,145.854,105.042z"/>
<path fill-rule="evenodd" clip-rule="evenodd" fill="#AE2C1F" d="M240.75,166.921c0.057,12.319,1.363,24.771-4.199,36.466
	c-0.652,1.37-0.949,2.774-2.704,3.047c4.407-12.171,6.842-24.625,5.455-37.641C239.198,167.83,239.55,166.988,240.75,166.921z"/>
<path fill-rule="evenodd" clip-rule="evenodd" fill="#CB6468" d="M19.907,173.553c-1.691-0.187-3.209,0.061-4.116,1.723
	c-0.796,1.459-1.689,2.902-3.65,2.357c-2.206-0.612-2.06-2.604-2.214-4.36c0.2-2.056,1.106-3.308,3.397-3.164
	c1.567,0.098,3.244,0.489,4.424-1.074C22.345,168.688,20.986,171.187,19.907,173.553z"/>
<path fill-rule="evenodd" clip-rule="evenodd" fill="#CB6768" d="M71.026,288.079c2.151,0.115,4.303,0.23,6.454,0.349
	c-1.579,4.248-0.614,11.906-9.15,6.826C68.533,292.601,67.38,289.438,71.026,288.079z"/>
<path fill-rule="evenodd" clip-rule="evenodd" fill="#E9CDCD" d="M92.625,237.197c-3.813,0.034-6.784,1.138-7.111,5.599
	c-2.046-1.752-2.906-5.037-6.672-4.903c3.545-2.051,6.809-4.059,10.629-4.881C90.022,234.784,94.508,233.589,92.625,237.197z"/>
<path fill-rule="evenodd" clip-rule="evenodd" fill="#C95B5C" d="M92.843,248.473c1.551-1.473,3.393-2.907,3.258-5.263
	c-0.245-4.285,2.345-2.788,4.464-2.386c1.864,0.506,3.724,1.018,3.408,3.595c-2.76,1.928-3.771,6.826-8.677,5.128
	C94.479,249.188,93.661,248.831,92.843,248.473z"/>
<path fill-rule="evenodd" clip-rule="evenodd" fill="#CB6465" d="M19.999,183.419c-4.16-2.574-4.206-2.664-0.356-4.604
	c2.042-1.028,1.198-2.728,1.403-4.21c1.398-1.5,1.985-3.647,3.838-4.793c0.625,0.061,1.069,0.368,1.35,0.928
	c0.905,1.863,0.053,3.534-0.552,5.232C24.262,178.817,22.705,181.557,19.999,183.419z"/>
<path fill-rule="evenodd" clip-rule="evenodd" fill="#D07B79" d="M203.307,91.855c-0.173,3.5-2.993,4.669-5.469,6.086
	c-0.253,0.145-1.231-0.315-1.319-0.643c-0.767-2.871,0.269-5.297,2.087-7.479C200.598,89.516,201.467,91.805,203.307,91.855z"/>
<path fill-rule="evenodd" clip-rule="evenodd" fill="#D17C7E" d="M95.296,249.547c1.975,0.196,3.425-0.432,4.353-2.338
	c0.803-1.65,2.02-2.966,4.095-2.98c1.932,0.282,3.033,1.396,3.329,3.319c-0.122,2.041-1.579,2.192-3.094,2.084
	c-3.186-0.229-6.021,0.834-8.784,2.223C95.229,251.085,95.263,250.315,95.296,249.547z"/>
<path fill-rule="evenodd" clip-rule="evenodd" fill="#C44446" d="M250.722,318.019c-1.563,0.066-3.126,0.134-4.689,0.2
	c-2.111-0.007-4.224-0.014-6.335-0.021c-0.243-1.386-2.675-0.751-2.378-2.28c0.224-1.159,1.667-1.006,2.714-1.181
	c1.736-0.29,3.448-0.72,5.171-1.091C246.508,315.78,248.678,316.819,250.722,318.019z"/>
<path fill-rule="evenodd" clip-rule="evenodd" fill="#D17B7D" d="M71.026,288.079c-1.702,2.09-0.145,5.403-2.696,7.174
	c-2.766-1.365-5.233-3.536-3.658-6.552C65.569,286.981,68.614,285.402,71.026,288.079z"/>
<path fill-rule="evenodd" clip-rule="evenodd" fill="#DFA9AE" d="M100.708,103.818c-3.025,0.39-5.893,0.105-8.582-1.561
	c-1.41-0.873-0.713-1.729-0.329-2.676c2.418-1.547,5.591,1.637,7.797-1.243C101.46,99.861,100.226,102.014,100.708,103.818z"/>
<path fill-rule="evenodd" clip-rule="evenodd" fill="#C75555" d="M88.424,68.722c-2.241-3.341-6.123-5.573-6.755-10
	c2.646,2.198,6.068,3.313,7.216,7.406c0.738,2.632,4.13,0.933,6.286,1.399c-0.02,0.357-0.041,0.715-0.061,1.072
	C92.93,71.234,90.685,70.399,88.424,68.722z"/>
<path fill-rule="evenodd" clip-rule="evenodd" fill="#C64D4E" d="M24.396,170.162c0.187,2.463,0.063,4.692-3.35,4.442
	c-0.379-0.351-0.759-0.702-1.138-1.053c-0.143-1.781,0.867-4.113-2.16-4.518c0.031-0.724,0.063-1.448,0.094-2.172
	c1.154-1.125,2.506-1.25,3.977-0.791C23.504,166.912,24.456,168.219,24.396,170.162z"/>
<path fill-rule="evenodd" clip-rule="evenodd" fill="#D7908F" d="M80.627,224.295c-2.913,1.826-5.826,3.652-8.739,5.479
	c-0.617-1.818-0.452-3.896,1.515-4.167c3.689-0.51,2.939-2.812,2.563-5.868C77.804,221.57,80.752,221.105,80.627,224.295z"/>
<path fill-rule="evenodd" clip-rule="evenodd" fill="#D0797E" d="M25.682,175.973c-0.051-1.964-0.103-3.927-0.154-5.891
	c-1.402-2.866,1.229-5.795-0.132-8.661c0,0,0.21-0.32,0.21-0.32c0.45-0.955,0.831-2.084,2.156-0.867
	c0.375,1.447,0.75,2.896,1.126,4.343c1.378,2.649,0.112,5.381,0.255,8.069C27.989,173.754,26.836,174.863,25.682,175.973z"/>
<path fill-rule="evenodd" clip-rule="evenodd" fill="#CD6C6C" d="M227.417,296.003c-3.614-1.926-7.229-3.852-10.842-5.777
	c1.978,0.147,4.009,0.652,5.925,0.371C227.071,289.926,228.404,291.812,227.417,296.003z"/>
<path fill-rule="evenodd" clip-rule="evenodd" fill="#C95F61" d="M29.143,172.646c-2.957-2.599-0.548-5.367-0.256-8.068
	c1.824,1.481,3.646,2.963,5.469,4.445C32.601,170.205,31.586,172.453,29.143,172.646z"/>
<path fill-rule="evenodd" clip-rule="evenodd" fill="#E7C4C3" d="M195.588,248.349c-0.558,1.952,1.009,4.671-1.251,5.825
	c-1.625,0.828-2.969-1.257-4.373-2.166c1.214-2.244,2.453-4.47,4.656-5.941C194.942,246.827,195.266,247.588,195.588,248.349z"/>
<path fill-rule="evenodd" clip-rule="evenodd" fill="#E6BFC1" d="M153.519,231.896c-2.2,1.188-4.432,2.345-4.815,5.504
	c-2.78-2.21-4.427-3.954-0.393-5.811c1.339-0.616,2.617-1.361,3.049-2.947c0.328-0.165,0.666-0.185,1.012-0.059
	C152.754,229.688,153.136,230.792,153.519,231.896z"/>
<path fill-rule="evenodd" clip-rule="evenodd" fill="#CC6B6D" d="M135.791,91.376c-0.319,1.246-0.64,2.492-0.959,3.739
	c-0.311,1.635,0.607,3.513-1.144,5.196c-1.502-2.116-2.938-4.136-4.373-6.156C131.474,93.229,133.633,92.303,135.791,91.376z"/>
<path fill-rule="evenodd" clip-rule="evenodd" fill="#D27F83" d="M175.654,87.341c0.677,5.882-4.098,3.497-6.694,4.414
	c0.542-3.102,2.866-4.526,5.406-5.75C174.796,86.45,175.225,86.895,175.654,87.341z"/>
<path fill-rule="evenodd" clip-rule="evenodd" fill="#C75154" d="M65.134,119.17c3.185,2.43,1.509,6.009,2.136,9.043
	c0.069-3.755-5.487-3.021-5.411-6.78C62.95,120.679,64.042,119.924,65.134,119.17z"/>
<path fill-rule="evenodd" clip-rule="evenodd" fill="#E3B7B7" d="M107.178,283.83c-0.301-2.72,1.818-4.516,2.689-6.788
	c0.483-1.26,1.352-0.361,1.785,0.495c-0.009,1.046-0.017,2.092-0.025,3.138c0.899,1.012,0.866,2.043,0.064,3.09
	C110.186,283.786,108.682,283.809,107.178,283.83z"/>
<path fill-rule="evenodd" clip-rule="evenodd" fill="#E1AFB4" d="M25.396,161.421c2.059,2.856,1.767,5.749,0.132,8.662
	c-0.378,0.025-0.755,0.052-1.133,0.079c-0.764-1.093-1.528-2.187-2.292-3.278c-0.761-2.195,1.393-2.374,2.342-3.386
	C25.399,163.097,25.591,162.347,25.396,161.421z"/>
<path fill-rule="evenodd" clip-rule="evenodd" fill="#D07A7B" d="M103.833,27.84c0.3-1.096-0.494-2.9,1.517-2.918
	c1.244-0.011,1.778,1.074,1.863,2.296c0.099,1.419-0.264,2.99,1.229,3.982c-0.797,0.947-1.595,1.895-2.688,3.192
	C105.025,31.912,104.429,29.876,103.833,27.84z"/>
<path fill-rule="evenodd" clip-rule="evenodd" fill="#D17C80" d="M88.424,68.722c2.239,0.517,4.473,0.71,6.687-0.122
	c0.001,1.097,0.002,2.193,0.003,3.291c-1.479,0.378-2.957,0.756-4.436,1.133c-0.754,0.594-1.503,0.69-2.245-0.022
	C89.388,71.574,89.532,70.147,88.424,68.722z"/>
<path fill-rule="evenodd" clip-rule="evenodd" fill="#C85656" d="M38.881,292.23c-0.076,0.968-0.153,1.935-0.229,2.901
	c-3.447-3.021-6.894-6.044-10.341-9.065C32.899,286.634,35.661,289.784,38.881,292.23z"/>
<path fill-rule="evenodd" clip-rule="evenodd" fill="#D5898D" d="M92.625,237.197c0.006-1.251-0.617-1.886-1.866-1.862
	c-1.908,0.035-1.808-1.023-1.289-2.323c1.302-0.666,1.517-2.043,2.081-3.191c0.379,0.011,0.759,0.022,1.138,0.035
	c1.893,1.322,3.077,2.984,2.605,5.438C94.674,236.308,94.08,237.355,92.625,237.197z"/>
<path fill-rule="evenodd" clip-rule="evenodd" fill="#D27F80" d="M191.161,88.284c-0.635,2.102,2.421,3.113,1.542,5.223
	c-0.115,0.276-1.103,0.538-1.356,0.354c-2.211-1.61-4.004-3.503-3.512-6.579C189.007,87.406,190.362,86.923,191.161,88.284z"/>
<path fill-rule="evenodd" clip-rule="evenodd" fill="#CE7373" d="M24.445,163.498c-0.78,1.129-1.561,2.257-2.341,3.385
	c-1.421-0.007-2.841-0.014-4.262-0.021c0-1.604,0-3.206,0-5.317C20.117,162.729,22.189,163.522,24.445,163.498z"/>
<path fill-rule="evenodd" clip-rule="evenodd" fill="#C95B5F" d="M1.364,203.278c2.614-1.569,4.691-0.07,6.812,1.19
	c-0.13,0.71-0.26,1.42-0.391,2.13c-2.205-0.891-4.426-0.05-6.639-0.062C1.218,205.45,1.291,204.364,1.364,203.278z"/>
<path fill-rule="evenodd" clip-rule="evenodd" fill="#CC6A67" d="M238.31,33.805c-2.918-1.685-3.728-3.981-4.04-6.619
	C237.491,27.65,237.491,27.65,238.31,33.805z"/>
<path fill-rule="evenodd" clip-rule="evenodd" fill="#D38387" d="M61.721,246.455c-0.604-0.006-1.209-0.012-1.814-0.018
	c-0.621-3.876-0.641-7.183,5.159-5.109C64.823,243.595,60.724,243.505,61.721,246.455z"/>
<path fill-rule="evenodd" clip-rule="evenodd" fill="#CB6768" d="M245.562,302.407c-2.376-0.683-4.752-1.366-7.129-2.049
	C242.154,297.169,243.824,297.648,245.562,302.407z"/>
<path fill-rule="evenodd" clip-rule="evenodd" fill="#CC6B6F" d="M74.042,80.8c-2.936-0.815-4.233,1.075-5.363,3.244
	c-0.093-2.27-0.636-4.61,1.041-6.601c0.715-0.001,1.429-0.002,2.144-0.004C72.86,78.385,74.921,78.64,74.042,80.8z"/>
<path fill-rule="evenodd" clip-rule="evenodd" fill="#C1605D" d="M68.649,109.539c0,2.484,0,4.969,0,8.042
	c-0.963-1.193-1.55-1.921-2.136-2.647c-0.027-2.199-0.054-4.398-0.082-6.598C67.171,108.737,67.91,109.138,68.649,109.539z"/>
<path fill-rule="evenodd" clip-rule="evenodd" fill="#AA3626" d="M233.907,206.323c0.069,5.051-0.922,6.793-4.396,7.721
	C230.977,211.471,232.442,208.897,233.907,206.323z"/>
<path fill-rule="evenodd" clip-rule="evenodd" fill="#CD6E70" d="M58.45,248.197c-0.652,1.177-1.305,2.353-1.956,3.529
	c-1.613,0.203-3.609-0.291-3.211-1.903C53.909,247.289,56.833,249.258,58.45,248.197z"/>
<path fill-rule="evenodd" clip-rule="evenodd" fill="#C4403F" d="M146.991,94c-3.859-0.569-1.877-2.602-1.087-4.336
	c0.667,0.008,1.333,0.017,2,0.025C148.457,91.308,148.622,92.844,146.991,94z"/>
<path fill-rule="evenodd" clip-rule="evenodd" fill="#CD6E71" d="M111.69,283.765c-0.021-1.03-0.043-2.061-0.064-3.09
	c1.333,0.092,3.578-0.957,3.79,0.461C115.721,283.186,113.843,284.128,111.69,283.765z"/>
<path fill-rule="evenodd" clip-rule="evenodd" fill="#D49392" d="M152.507,268.289c-0.105-1.947-1.691-2.562-2.984-3.583
	c-4.55-3.592-3.025-10.209,2.81-12.58c2.507,0.905,4.608,2.428,6.495,4.277c1.626,3.368,1.229,7.416,3.853,10.552
	c0.768,0.917,1.125,3.259-0.255,4.624c-1.361,1.346-2.71,0.024-4.058-0.377C156.238,270.569,154.164,269.858,152.507,268.289z"/>
<path fill-rule="evenodd" clip-rule="evenodd" fill="#C85A5A" d="M152.507,268.289c2.386,1.454,5.784-0.124,7.782,2.647
	c0.412,0.573,1.418,0.566,1.759-0.306c0.547-1.396,0.802-3.268-0.213-4.156c-3.217-2.813-2.558-6.563-3.006-10.072
	c2.658,5.834,5.317,11.668,7.976,17.501c-5.343,4.123-7.313,3.826-11.367-1.695C154.473,270.894,153.484,269.595,152.507,268.289z"
	/>
<path fill-rule="evenodd" clip-rule="evenodd" fill="#C95C5E" d="M152.269,293.899c5.998,1.619,0.264,3.572,0.153,5.365
	c-2.769,0.189-5.528,0.201-8.1-1.031c-1.481-0.709-4.126-0.467-3.418-3.245c0.529-2.074,1.887-3.554,4.365-3.419
	c1.283,0.07,2.572,0.018,3.858,0.021c-0.018,0.407-0.034,0.813-0.05,1.221c-0.584,0.919-1.95,0.877-2.552,2.273
	C148.77,295.971,150.514,294.903,152.269,293.899z"/>
<path fill-rule="evenodd" clip-rule="evenodd" fill="#F2E3E4" d="M193.265,262.971c0.559-4.234,3.649-3.441,6.44-3.243
	c0.376,0.373,0.752,0.744,1.128,1.116c0.019,0.614,0.036,1.229,0.054,1.843c-1.961,1.207-3.296,4.164-6.364,2.277
	C194.104,264.299,193.684,263.635,193.265,262.971z"/>
<path fill-rule="evenodd" clip-rule="evenodd" fill="#D07977" d="M185.86,286.132c3.609,0.111,4.413,3.528,6.459,5.482
	C187.009,293.509,186.72,289.483,185.86,286.132z"/>
<path fill-rule="evenodd" clip-rule="evenodd" fill="#DA9A9C" d="M194.522,264.964c2.122-0.759,4.244-1.518,6.365-2.277
	c-1.039,1.549-2.076,3.098-3.112,4.647c-0.41,0.386-0.821,0.772-1.232,1.158C195.152,267.727,194.285,266.661,194.522,264.964z"/>
<path fill-rule="evenodd" clip-rule="evenodd" fill="#C8585A" d="M184.982,299.785c2.563-1.104,4.172,0.183,5.702,1.732
	C188.827,301.078,186.458,302.372,184.982,299.785z"/>
<path fill-rule="evenodd" clip-rule="evenodd" fill="#D27F7F" d="M123.651,137.141c0.628,0.333,1.307,0.597,1.876,1.011
	c2.285,1.66,7.229-0.058,6.613,5.309c-0.723,6.287-3.433,9.593-8.777,10.075c-2.694,0.243-4.575,1.29-4.993,4.026
	c-0.244,1.602-0.569,2.454-2.294,1.503c-0.983-7.271,1.16-14.078,3.099-20.915C120.399,136.632,122.108,137.258,123.651,137.141z"/>
<path fill-rule="evenodd" clip-rule="evenodd" fill="#D28887" d="M261.64,132.426c0.313,4.793,2.562,9.315,1.62,14.339
	c-0.42,2.246,1.562,1.848,3.022,1.357c-2.111,4.344-5.916,1.624-8.944,2.143c-2.974-3.253-5.813-6.665-10.373-7.746
	c1.109-2.184,2.876-1.103,3.747-2.167C255.343,139.073,258.235,135.397,261.64,132.426z"/>
<path fill-rule="evenodd" clip-rule="evenodd" fill="#CC7474" d="M250.712,140.353c-0.718,0.485-2.008,0.932-2.044,1.462
	c-0.099,1.449,1.264,0.629,1.936,0.724c4.522,0.636,4.678,4.999,6.734,7.727c-0.758,0.079-1.516,0.158-2.274,0.238
	c-2.563-1.6-4.771-3.418-8.396-2.862c-3.079,0.472-5.038-3.452-3.713-6.318C245.54,141,248.126,140.676,250.712,140.353z"/>
<path fill-rule="evenodd" clip-rule="evenodd" fill="#F6EBED" d="M312.3,157.078c-3.072,0-5.256,0.017-7.438-0.007
	c-1.16-0.013-2.3-0.306-2.354-1.688c-0.059-1.488,1.137-1.54,2.275-1.649C307.507,153.473,309.697,154.454,312.3,157.078z"/>
<path fill-rule="evenodd" clip-rule="evenodd" fill="#C33D3D" d="M95.294,235.294c-1.006-1.747-2.339-3.338-2.604-5.438
	c2.472-0.149,2.591-5.277,6.529-2.88c1.161,0.706,1.271-1.27,0.988-2.305c-0.669-2.451-2.02-4.881,1.78-6.231
	c3.815-1.357,4.703,1.589,6.253,3.707c-1.818,4.167,0.641,3.825,3.371,3.198c2.675-0.249,4.426,1.006,5.492,3.376
	c-1.802,1.132-2.179,3.787-4.578,4.281c-0.632,1.456-0.918,3.257-1.962,4.304c-3.166,3.175-2.381,6.006-0.052,9.161
	c0.743,1.006,2.42,1.881,1.573,3.73c-2.436,0.509-2.978-2.504-5.009-2.651c-1.11-1.105-2.219-2.212-3.329-3.318
	c-1.061-1.134-2.121-2.27-3.181-3.403C99.282,238.528,97.319,236.882,95.294,235.294z"/>
<path fill-rule="evenodd" clip-rule="evenodd" fill="#CF7474" d="M140.339,254.03c-2.393,4.571-9.169,5.11-14.377,1.145
	c-0.277-0.245-0.371-0.492-0.282-0.741c0.089-0.249,0.179-0.374,0.271-0.374c-4.409-4.791-8.818-9.581-13.227-14.371
	c0.976-0.968,1.994-1.884,3.209-2.554c0.479-0.144,0.886-0.025,1.217,0.348c4.418,3.327,10.945,2.687,14.474,7.689
	c-0.014,0.329-0.011,0.659,0.011,0.988c-1.167,1.229-2.819-0.124-4.092,0.616C129.849,254.782,130.351,255.062,140.339,254.03z"/>
<path fill-rule="evenodd" clip-rule="evenodd" fill="#CE706F" d="M117.15,237.482c-0.311-0.004-0.622-0.011-0.933-0.021
	c-2.478-0.358-1.998-2.961-3.233-4.261c0,0-0.457-0.199-0.458-0.199c1.59-1.357,0.856-5.201,4.577-4.282
	C117.673,231.638,115.983,234.568,117.15,237.482z"/>
<path fill-rule="evenodd" clip-rule="evenodd" fill="#CA6261" d="M111.611,225.345c-0.691,3.597-2.893,2.09-4.28,0.932
	c-1.844-1.539-2.104-3.353,0.91-4.131C108.469,224.155,110.186,224.597,111.611,225.345z"/>
<path fill-rule="evenodd" clip-rule="evenodd" fill="#CE7275" d="M83.916,112.702c2.675-0.801,3.538-4.445,6.794-4.334
	c-4.984,7.771-10.836,14.975-14.708,23.482c-1.094,2.401-2.555,4.497-1.408,7.112c0.902,2.054-1.101,2.386-1.718,3.528
	c-0.333,0.016-0.665,0.036-0.996,0.059c-1.881,0.045-1.787-0.975-1.213-2.252c0.074-0.744,0.146-1.489,0.219-2.233
	c1.292,1.331,2.359,2.066,1.906-0.786c-0.65-4.09-1.448-8.161-1.961-12.268c-0.347-2.774,0.957-5.116,3.921-4.43
	c5.171,1.198,6.669-1.625,7.683-5.672C82.637,114.099,83.407,113.433,83.916,112.702z"/>
<path fill-rule="evenodd" clip-rule="evenodd" fill="#C64E50" d="M58.763,141.354c-0.351,0.096-0.729,0.138-1.048,0.297
	c-2.912,1.449-2.537,7.426-7.25,5.932c-3.001-0.952-4.506-4.714-7.738-5.838c-2.353-0.819-1.134-2.797-1.287-4.214
	c-0.22-2.034,1.645-1.327,2.741-1.628c4.495-1.234,8.966,0.578,13.451,0.068C58.938,137.569,59.311,139.365,58.763,141.354z"/>
<path fill-rule="evenodd" clip-rule="evenodd" fill="#C64E50" d="M70.667,140.296c0.404,0.751,0.809,1.501,1.213,2.252
	c-0.375,1.192-0.875,2.361-1.096,3.582c-0.278,1.54-0.95,2.768-2.373,3.365c-1.098,0.461-1.609-0.535-1.996-1.313
	c-0.712-1.434-1.715-2.925-0.434-4.52C67.221,142.121,68.445,140.495,70.667,140.296z"/>
<path fill-rule="evenodd" clip-rule="evenodd" fill="#DEA8AE" d="M58.763,141.354c-1.714-1.514-1.388-3.456-1.131-5.384
	c1.543-0.402,2.97-0.344,3.375,1.532C61.409,139.367,60.317,140.536,58.763,141.354z"/>
<path fill-rule="evenodd" clip-rule="evenodd" fill="#EFDDDF" d="M110.374,273.383c-3.716,0.637-6.553,0.744-9.361-0.282
	c-1.207-0.441-2.64-0.656-2.153-2.41c0.374-1.349,1.707-1.342,2.677-1.036C104.321,270.532,107.526,270.471,110.374,273.383z"/>
<path fill-rule="evenodd" clip-rule="evenodd" fill="#C54644" d="M125.951,254.06c0.004,0.371,0.008,0.743,0.011,1.114
	c-0.011,0.868-0.172,1.665-1.001,2.149c-0.602-2.979-2.994-1.997-4.832-2.136c-1.488-0.112-3.525-0.142-3.471-1.816
	c0.081-2.49,2.489-1.249,3.908-1.52C122.802,251.425,124.26,253.063,125.951,254.06z"/>
<path fill-rule="evenodd" clip-rule="evenodd" fill="#DFA8AB" d="M112.984,233.201c2.84,0.084,1.739,3.155,3.231,4.261
	c-0.209,2.238-1.824,2.274-3.492,2.227C112.811,237.525,112.897,235.363,112.984,233.201z"/>
<path fill-rule="evenodd" clip-rule="evenodd" fill="#D6A1A0" d="M140.339,254.03c-6.907,4.546-13.807,1.308-15.144-7.153
	c-0.258-1.639,0.516-2.439,2.244-1.947c1.402,0.398,2.797,0.82,4.195,1.231c1.593,0.134,3.208,0.144,4.772,0.427
	C140.813,247.385,142.772,249.572,140.339,254.03z"/>
<path fill-rule="evenodd" clip-rule="evenodd" fill="#CC6B6F" d="M88.434,73.003c0.748,0.008,1.496,0.015,2.244,0.022
	c-1.061,2.917-2.542,5.839,0.872,8.341c0.91,0.666,1.684,1.997-0.13,2.331c-3.404,0.627-1.146,3.228-1.916,4.729
	c-4.208,2.144-7.918-0.656-11.828-1.278c-2.979-0.473-2.358-3.179-2.532-5.273c0.69-0.964,1.802-1.483,2.805-1.336
	c5.188,0.758,7.251-2.832,9.344-6.452C87.673,73.725,88.054,73.364,88.434,73.003z"/>
<path fill-rule="evenodd" clip-rule="evenodd" fill="#CB6569" d="M266.173,86.275c-5.713,3.339-10.834,1.012-11.066-5.047
	c-0.049-1.28,0.037-2.565,0.063-3.848C255.145,84.912,261.3,84.801,266.173,86.275z"/>
<path fill-rule="evenodd" clip-rule="evenodd" fill="#D17C80" d="M87.293,74.086c0.491,3.701-3.368,7.77-6.8,7.427
	c-1.753-0.176-3.563,0.222-5.348,0.36c-0.368-0.358-0.735-0.716-1.104-1.074c-0.726-1.12-1.452-2.24-2.178-3.36
	c1.923-0.212,2.551-1.289,1.784-3.003c-0.893-1.994,0.263-3.104,1.627-4.071c1.705-1.209,3.194-0.388,4.254,0.975
	C81.571,73.965,84.271,74.405,87.293,74.086z"/>
<path fill-rule="evenodd" clip-rule="evenodd" fill="#BC2B23" d="M242.996,218.704c1.804,2.801-2.448,2.447-2.289,4.393
	c-3.381-0.008-6.982,0.628-9.792-4.317C235.743,222.451,238.885,216.251,242.996,218.704z"/>
<path fill-rule="evenodd" clip-rule="evenodd" fill="#D07878" d="M164.46,106.003c-4.501-2.119-9.334-1.917-14.124-2.022
	c-3.359,0.775-3.291-0.917-2.338-3.246c0.848-0.324,2.207-1.155,2.467-0.894c4.168,4.19,9.433,2.261,14.247,2.78
	c0.402,0.044,0.733,0.755,1.098,1.156C164.942,104.265,164.574,105.058,164.46,106.003z"/>
<path fill-rule="evenodd" clip-rule="evenodd" fill="#D07878" d="M166.671,103.807c0.148-2.217,0.296-4.434,0.445-6.651
	C169.968,99.574,169.787,101.789,166.671,103.807z"/>
<path fill-rule="evenodd" clip-rule="evenodd" fill="#CB6667" d="M147.998,100.734c-0.03,1.664,0.163,3.168,2.338,3.246
	c-0.785,3.351-3.141,0.063-4.482,1.063c0.241-1.851-0.722-3.93,1.036-5.495C147.259,99.943,147.628,100.339,147.998,100.734z"/>
<path fill-rule="evenodd" clip-rule="evenodd" fill="#DCA0A0" d="M135.918,95.095c6.699-2.351,8.773-0.944,8.808,6.007
	c0.01,2.004-0.059,4.008-0.093,6.01C138.085,106.515,135.825,103.397,135.918,95.095z"/>
<path fill-rule="evenodd" clip-rule="evenodd" fill="#DA9B9B" d="M152.269,293.899c-0.526,0.733-0.962,1.559-1.598,2.182
	c-1.7,1.666-3.689,1.319-5.582,0.446c-0.83-0.382-1.444-1.279-0.906-2.268c1.119-2.054,3.123-1.425,4.893-1.45
	C149.881,293.935,151.174,293.628,152.269,293.899z"/>
</svg>
